<?xml version="1.0" encoding="UTF-8"?>
<svg id="Layer_2" xmlns="http://www.w3.org/2000/svg" viewBox="0 0 1000 1000">
  <defs>
    <style>
      .cls-1 {
        fill: #3f5e97;
      }

      .cls-2 {
        fill: #fff;
      }

      .cls-3 {
        fill: #aab;
      }

      .cls-4 {
        fill: none;
        stroke: #000;
        stroke-linecap: round;
        stroke-linejoin: round;
        stroke-width: 3px;
      }

      .cls-5 {
        fill: #ccc;
      }

      .cls-6 {
        opacity: .5;
      }
    </style>
  </defs>
  <g id="Layer_2-2" data-name="Layer_2">
    <rect class="cls-1" width="1000" height="1000"/>
  </g>
  <g id="Layer_1-2" data-name="Layer_1">
    <path class="cls-2" d="M234.46,613.31c-.37,2.79-21.18-1.95-27.11,7.56-4.01,6.44-.65,18.51,6.67,25.33,14.02,13.07,37.97,2.62,43.11,12.89,2.23,4.44-1.43,8.04-1.33,12.44.41,18.03,63.6,37.2,150.67,44.44,41.54,3.46,103.69,8.6,172.22-4.3,44.32-8.34,55.73-17.52,87.11-17.33,3.42.02,39.64.34,56-11.11,1.25-.88,5.7-4.14,12.44-6.96,4.38-1.83,9.49-3.38,20-4.89,20.5-2.95,21.52,0,26.67-3.11,9.53-5.76,5.47-15.52,14.67-24.44,12.09-11.73,29.31-4.76,32.44-10.67,4.93-9.3-28.75-43.48-66.67-64-92.19-49.89-141.85,27.1-259.56-.44-61.79-14.46-136.15-55.69-200.02-64.62-35.38-4.95-59.7,1.11-65.95,12.33-1.63,2.92-5.04,11.61-13.04,14.24-5.06,1.67-7.35-.61-12.07,1.58-6.53,3.03-5.54,8.97-11.63,13.51-5.39,4.01-8.53,1.12-19.26,3.56-6.15,1.4-19.06,4.33-24.48,14.67-.22.42-5.21,10.34-.89,19.11,4.03,8.19,13.9,9.69,35.56,15.11,8.31,2.08,44.94,11.4,44.44,15.11Z"/>
    <path class="cls-2" d="M861.35,674.34c.53-2.88-.79-6.39,0-16.59.36-4.66.54-6.99,1.19-8.3,4.36-8.83,19.31-3.76,25.48-11.26,6.48-7.87,1.32-27.21-9.48-37.93-9.62-9.54-18.59-7.18-27.26-18.96-5.65-7.67-3.17-10.49-8.3-15.41-7-6.72-15.5-5.18-35.56-6.52-24.58-1.64-33.45-5.41-34.37-2.96-1.58,4.21,22.14,22.21,49.19,32.59,8.11,3.11,19.21,6.57,27.26,17.19,3.26,4.3,7.32,9.65,6.52,16-1.42,11.21-16.09,10.47-28.44,27.85-6.19,8.71-5.52,13.13-12.44,18.37-7.78,5.88-16.46,6.22-20.15,6.52-21.96,1.8-32.81,16.05-59.85,29.63-38.41,19.29-72.46,18.65-72.3,19.56.19,1.01,41.33-4.14,90.67-16,42.21-10.15,32.03-11.18,57.48-16,21.21-4.02,48.43-7.12,50.37-17.78Z"/>
    <path class="cls-2" d="M927.72,634.05c-2.17-.75,3.69-11.1,0-23.11-6.42-20.91-35.46-26.32-33.78-32.59.96-3.58,11.14-4.36,18.37-2.96,14.43,2.79,26.72,16.09,27.85,30.81,1.17,15.25-9.88,28.73-12.44,27.85Z"/>
    <path class="cls-2" d="M873.79,571.83c-7.18,2.52-13.68-14.52-34.37-23.11-6.99-2.9-11.36-3.08-11.26-4.15.19-2.09,17.16-5,32.59,1.78,3.34,1.47,18,7.91,17.78,17.19-.07,2.83-1.55,7.17-4.74,8.3Z"/>
    <path class="cls-2" d="M614.98,722.79c-9.45,4.48-22.81,9.53-39.41,12-24.16,3.59-44.17.06-56.3-3.11,15.22,1.9,35.03,2.8,57.78-.3,14.52-1.98,27.26-5.17,37.93-8.59Z"/>
    <path class="cls-1" d="M280.09,527.46c-4.05-1.03-11.04-2.26-19.56-.89-7.4,1.19-13.01,3.87-16.44,5.85,1.74-1.7,9.73-9.14,21.7-8.96,6.65.1,11.69,2.5,14.3,4Z"/>
    <path class="cls-1" d="M204.09,559.53c-4.37,8.06-3.71,12.55-2.44,15.11,3.08,6.2,13.62,8.76,25.78,11.7,6.88,1.67,12.71,2.48,13.63,5.93.75,2.81-2.57,4.43-1.85,6.59,1.5,4.53,16.92.11,32.67,7.63,6.73,3.21,7.26,5.62,7.3,6.62.15,4.57-9.26,6.73-8.85,10.19.46,3.88,12.48,2.56,21.11,11.63,2.03,2.13,4.33,4.55,4.22,7.7-.25,7.43-13.56,9.93-13.33,14,.41,7.48,46,8.32,46,11.33,0,2.12-22.57,4.02-42.89-2.22-3.21-.99-9.95-3.28-10.22-6.89-.31-4.13,8.09-6.41,7.78-10.67-.2-2.7-3.74-3.96-10.67-7.56-12.66-6.58-18.98-9.86-20.44-14.89-1.84-6.35,4.73-9.66,2.44-14.89-3.06-7-16.84-5.63-18.04-11.77-.5-2.56,1.76-3.43,1.15-5.78-1.01-3.89-7.94-4.34-22.22-7.78-8.42-2.02-14.21-3.84-20.44-7.11-5.2-2.73-8.99-4.78-9.11-7.56-.27-6,16.69-10.85,18.44-11.33Z"/>
    <path class="cls-2" d="M346.09,505.9c.12-.39-37.94-22.59-81.19-12.15-4.36,1.05-.33.4-43.26,17.48-29.5,11.74-37.52,14.48-49.78,22.52-17.04,11.17-14.15,14.13-26.37,19.85-22.92,10.73-39.9,3.49-45.63,13.63-3.6,6.38-1.12,16.73,4.44,22.81,14.64,16.01,48.26-.18,54.81,11.56,3.96,7.09-7.73,14.01-5.04,23.7,5.08,18.26,50.29,6.94,72,34.07,9.99,12.49,3.81,19.14,14.81,36.15,14.58,22.53,38.64,31.27,50.07,35.26,58.31,20.33,112.74-7.9,114.07-3.85,1.39,4.23-54.58,45.46-117.04,31.11-26.19-6.02-70.41-25.68-82.96-60.74-3.21-8.97-2.79-14.58-8.89-20.74-18.22-18.39-52.69.74-65.78-15.41-8.33-10.28,3.33-20.86-5.04-32.89-12.35-17.75-44.01-3.66-59.85-23.7-4.27-5.41-8.91-15.22-5.93-23.41,4.25-11.64,19.81-8.77,40.3-24.89,10.21-8.03,7.81-9.89,21.04-20.44,7.8-6.22,16.65-13.14,29.63-16.89,10.09-2.91,12.88-1.08,21.63-2.96,18.78-4.05,29.74-17.64,34.96-22.52,34.17-31.96,138.77,13.08,138.96,12.44Z"/>
    <path class="cls-1" d="M672.76,683.75c23.89-.96,38.35-7.91,47.26-14.37,6.01-4.36,15.01-12.48,18.07-10.22,1.55,1.14,1.15,4.63.3,6.96-2.86,7.8-13.68,10.44-30.37,14.52-9.63,2.35-15.86,2.94-17.93,3.11-6.74.57-12.63.4-17.33,0Z"/>
    <path class="cls-1" d="M764.46,648.49c-.6-.91,7.99-4.03,12-13.78,4.02-9.75-.13-17.44,3.78-19.56,2.97-1.61,8.63,1.06,10.89,5.11,1.43,2.56,1.2,5.16,1.11,6-1.3,12.79-26.73,23.82-27.78,22.22Z"/>
    <path class="cls-1" d="M753.13,593.16c.1.24.87,2.07,0,3.56-1.46,2.48-5.95,1.29-12.89,1.78-7.77.54-13.71,2.85-13.85,2.37-.16-.57,8.7-2.44,9.19-6.59.19-1.63-1.07-2.26-.67-3.33,1.26-3.33,15.77-3.44,18.22,2.22Z"/>
    <g>
      <g>
        <path class="cls-3" d="M328.36,625.21c3.35,13.4,53.71,9.24,54.52,16.6.38,3.36-9.72,8.06-16.59,11.26-7.73,3.59-11.37,3.94-11.38,4.74-.04,2.38,31.38,5.81,139.6,10.94-.77-4.68-1.54-9.37-2.31-14.05-5.04-15.02-9.63-27.3-13.13-36.28-3.23-8.3-6.95-17.74-7.4-18.88,1.27,2.84,2.52,5.68,3.78,8.53,8.24-10.6,21.34-25.21,40.43-38.65,13.65-9.6,30.8-18.93,56.3-26.96,11.66-3.67,22.97-6.4,34.72-8.41.23-.04.45-.08.67-.12,33.39-5.65,70.44-5.67,129.05-5.7,11.88,0,38.2.14,72.3-6.22,12.06-2.25,21.92-4.72,28.44-6.49.03-.01.07-.02.12-.03.37-.1.73-.2,1.07-.29,0,.01,0,.03-.01.04,6.7-1.73,38.32-11.43,48.31-42.12,1.53-4.71,8.76-26.96-2.67-42.96-11.17-15.64-30.85-11.48-102.28-23.05-12.85-2.08-24.51-4.21-33.87-6.99-.14-.04-.29-.09-.45-.14-11.98-3.61-20.08-8.33-21.92-15.45-.11-.4-.45-1.85-.54-3.74,0,0-.01,0,0-.01-.25-2.65.18-5.47,1.88-7.76.03-.05.07-.1.11-.15.19-.27.4-.53.63-.79,1.86-2.07,4.65-3.24,7.92-3.51,1.91-.34,5.54-.68,9,1.24.02-1.53-.03-9.43-6.26-15.8-7.11-7.27-16.49-6.63-17.78-6.52-10.89-19.72-30.74-48.31-64.76-68.88-78.81-47.65-169.69-13.57-201.67,1.05,6.44-2.87,12.57-5.16,18.23-6.98,12.56.17,21.93,5.07,22.78,10.66,1.23,8.09-15.69,15.3-18.22,16.34-11.84,4.86-30.45,6.7-35.56-2.11-1.05-1.81-2.24-5.29-.31-11.43.93-.51,1.88-1.02,2.85-1.53-19.99,10.25-53.74,31-82.11,67.72-29.16,37.73-39.38,75.15-56,136-11.61,42.47-17.46,83.76-18.37,90.37-1.39,10.01-2.35,18.39-2.97,24.29,22.54-.12,44.69,1.81,46.85,10.28,1.14,4.46-4.14,7.37-3,11.94ZM489.64,478.65c0-9.5,7.96-17.2,17.77-17.2s17.78,7.7,17.78,17.2-7.96,17.21-17.78,17.21-17.77-7.7-17.77-17.21Z"/>
        <path class="cls-3" d="M441.11,286.14c-1.93,6.14-.74,9.62.31,11.43,5.11,8.81,23.72,6.97,35.56,2.11,2.53-1.04,19.45-8.25,18.22-16.34-.85-5.59-10.22-10.49-22.78-10.66-5.66,1.82-11.79,4.11-18.23,6.98-.03.02-.05.03-.08.04-.39.17-.78.35-1.17.53-1.98.92-3.71,1.76-5.17,2.47-.9.44-1.85.91-2.82,1.41-.33.16-.66.33-.99.5-.97.51-1.92,1.02-2.85,1.53Z"/>
        <path d="M507.41,461.45c-9.81,0-17.77,7.7-17.77,17.2s7.96,17.21,17.77,17.21,17.78-7.7,17.78-17.21-7.96-17.2-17.78-17.2Z"/>
        <path class="cls-5" d="M666.78,612.2c.48-.06.97-.12,1.47-.19.47-.07.93-.14,1.41-.22-.25.05-.51.09-.77.13-.22.03-.43.06-.64.09-.5.08-.99.14-1.47.19ZM666.7,612.21c-3.24.39-6.18.5-8.74.47,2.55.02,5.49-.09,8.74-.47ZM677.43,610.04c.42-.12.83-.24,1.23-.37.4-.12.79-.25,1.17-.37,1.15-.38,2.32-.8,3.5-1.27,8.02-3.17,27.04-10.7,30.85-24.91.84-3.12,1.62-9.1,6.48-12.42,2.26-1.55,4.53-1.84,5.68-2.09,5.81-1.24,10.98.55,27.51-.88,21.26-1.83,57.66-4.98,75.26-29.03,3.33-4.56,7.56-12.02,9.43-23.46-.5.13-.86.21-1.06.25-.05.01-.09.02-.12.03-6.52,1.77-16.38,4.24-28.44,6.49-34.1,6.36-60.42,6.22-72.3,6.22-58.61.03-95.66.05-129.05,5.7-.22.04-.44.08-.67.12-11.75,2.01-23.06,4.74-34.72,8.41-25.5,8.03-42.65,17.36-56.3,26.96-19.09,13.44-32.19,28.05-40.43,38.65-1.26-2.85-2.51-5.69-3.78-8.53.45,1.14,4.17,10.58,7.4,18.88,3.5,8.98,8.09,21.26,13.13,36.28.1.29.2.59.3.88,28.88,1.46,52.42.77,69.31-.24,5.34-.31,37.53-2.35,37.93-8,.14-2.14-4.4-3.28-4.11-5.26.49-3.36,14.19-4.06,36.85-5.4,23.01-1.37,27.97-1.79,33.46-5.48,8.35-5.62,12.06-14.85,13.89-21.89-.39.12-.78.25-1.17.36-.42.14-.82.26-1.23.37ZM672.35,611.29c.36-.07.71-.14,1.05-.22.48-.11.95-.22,1.4-.33-.47.13-.94.23-1.4.33-.35.09-.7.16-1.05.22Z"/>
        <path d="M727,373.02c-1.69,2.45-1.99,5.44-1.88,7.76-.01.01,0,.01,0,.01.19,2.12.81,4.12,1.56,5.67,2.12,4.38,5.92,6.45,11.63,9.55,3.68,2.01,6.96,3.23,9.27,3.97.16.05.31.1.45.14,1.41-2.43,6.16-11.32,3.17-20.92-.76-2.44-2.18-6.97-6.54-9.39-3.15-1.06-6.25-1.47-9-1.24-.37.06-.68.13-.91.18-1.84.4-5.35,1.15-7.64,4.12-.04.05-.08.1-.11.15Z"/>
        <path class="cls-5" d="M838.55,515.2c-.34.09-.7.19-1.07.29.2-.04.56-.12,1.06-.25.01-.01.01-.03.01-.04Z"/>
      </g>
      <g>
        <path class="cls-4" d="M669.66,611.79c-.25.05-.51.09-.77.13-.22.03-.43.06-.64.09-.5.08-.99.14-1.47.19"/>
        <path class="cls-4" d="M674.8,610.74c-.45.11-.92.22-1.4.33-.34.08-.69.15-1.05.22"/>
        <path class="cls-4" d="M679.83,609.3c-.38.12-.77.25-1.17.37-.4.13-.81.25-1.23.37"/>
        <path class="cls-4" d="M471.67,599.54c.45,1.14,4.17,10.58,7.4,18.88,3.5,8.98,8.09,21.26,13.13,36.28.1.29.2.59.3.88,28.88,1.46,52.42.77,69.31-.24,5.34-.31,37.53-2.35,37.93-8,.14-2.14-4.4-3.28-4.11-5.26.49-3.36,14.19-4.06,36.85-5.4,23.01-1.37,27.97-1.79,33.46-5.48,8.35-5.62,12.06-14.85,13.89-21.89"/>
        <path class="cls-4" d="M606.9,534.05c-11.75,2.01-23.06,4.74-34.72,8.41-25.5,8.03-42.65,17.36-56.3,26.96-19.09,13.44-32.19,28.05-40.43,38.65-1.26-2.85-2.51-5.69-3.78-8.53-.04-.1-.05-.13-.05-.12"/>
        <path class="cls-4" d="M837.36,515.52c-6.52,1.77-16.38,4.24-28.44,6.49-34.1,6.36-60.42,6.22-72.3,6.22-58.61.03-95.66.05-129.05,5.7"/>
        <path class="cls-4" d="M677.43,610.04c.41-.11.81-.23,1.23-.37.39-.11.78-.24,1.17-.36h0c1.15-.39,2.32-.81,3.5-1.28,8.02-3.17,27.04-10.7,30.85-24.91.84-3.12,1.62-9.1,6.48-12.42,2.26-1.55,4.53-1.84,5.68-2.09,5.81-1.24,10.98.55,27.51-.88,21.26-1.83,57.66-4.98,75.26-29.03,3.33-4.56,7.56-12.02,9.43-23.46.01-.01.01-.03.01-.04-.34.09-.7.19-1.07.29"/>
        <path class="cls-4" d="M677.43,610.04c-.35.1-.71.2-1.08.31-.52.14-1.04.27-1.55.39"/>
        <path class="cls-4" d="M672.35,611.29c.35-.06.7-.13,1.05-.22.46-.1.93-.2,1.4-.33"/>
        <path class="cls-4" d="M672.35,611.29c-.13.04-.27.07-.4.09-.18.03-.37.07-.56.11-.32.06-.63.12-.94.17-.16.03-.31.06-.47.08-.11.02-.22.04-.32.05"/>
        <path class="cls-4" d="M666.78,612.2c.48-.06.97-.12,1.47-.19.47-.07.93-.14,1.41-.22"/>
        <path class="cls-4" d="M666.78,612.2s-.06.01-.08.01"/>
        <path class="cls-4" d="M666.7,612.21c-3.24.39-6.18.5-8.74.47,2.55.02,5.49-.09,8.74-.47Z"/>
        <path class="cls-4" d="M748.03,400.12c9.36,2.78,21.02,4.91,33.87,6.99,71.43,11.57,91.11,7.41,102.28,23.05,11.43,16,4.2,38.25,2.67,42.96-9.99,30.69-41.61,40.39-48.31,42.12-.5.13-.86.21-1.06.25-.05.01-.09.02-.12.03"/>
        <path class="cls-4" d="M725.12,380.79c.09,1.89.43,3.34.54,3.74,1.84,7.12,9.94,11.84,21.92,15.45"/>
        <path class="cls-4" d="M727,373.02c-1.69,2.45-1.99,5.44-1.88,7.76"/>
        <path class="cls-4" d="M454.19,279.66c31.98-14.62,122.86-48.7,201.67-1.05,34.02,20.57,53.87,49.16,64.76,68.88,1.29-.11,10.67-.75,17.78,6.52,6.23,6.37,6.28,14.27,6.26,15.8-3.15-1.06-6.25-1.47-9-1.24-3.27.27-6.06,1.44-7.92,3.51-.23.26-.44.52-.63.79"/>
        <path class="cls-4" d="M444.95,284.11c.97-.5,1.92-.97,2.82-1.41,1.46-.71,3.19-1.55,5.17-2.47"/>
        <path class="cls-4" d="M492.2,654.7c.77,4.68,1.54,9.37,2.31,14.05-108.22-5.13-139.64-8.56-139.6-10.94.01-.8,3.65-1.15,11.38-4.74,6.87-3.2,16.97-7.9,16.59-11.26-.81-7.36-51.17-3.2-54.52-16.6-1.14-4.57,4.14-7.48,3-11.94-2.16-8.47-24.31-10.4-46.85-10.28.62-5.9,1.58-14.28,2.97-24.29.91-6.61,6.76-47.9,18.37-90.37,16.62-60.85,26.84-98.27,56-136,28.37-36.72,62.12-57.47,82.11-67.72"/>
        <path class="cls-4" d="M562.27,562.16c3.01-4.24,7.36-9.39,13.48-14.22,11.8-9.32,24.01-12.6,31.15-13.89.23-.04.45-.08.67-.12"/>
        <path class="cls-4" d="M728.12,405.12c-4.41,6.81-11.89,16.12-23.55,23.11-6.31,3.79-11.75,5.64-13.56,6.23-8.37,2.71-15.72,3.17-20.66,3.11"/>
        <path class="cls-4" d="M454.19,279.66c6.44-2.87,12.57-5.16,18.23-6.98,12.56.17,21.93,5.07,22.78,10.66,1.23,8.09-15.69,15.3-18.22,16.34-11.84,4.86-30.45,6.7-35.56-2.11-1.05-1.81-2.24-5.29-.31-11.43.93-.51,1.88-1.02,2.85-1.53.33-.17.66-.34.99-.5,2.53-1.32,5.19-2.62,7.99-3.88.39-.18.78-.36,1.17-.53.03,0,.05-.02.08-.04Z"/>
        <path class="cls-4" d="M489.64,478.65c0,9.51,7.96,17.21,17.77,17.21s17.78-7.7,17.78-17.21-7.96-17.2-17.78-17.2-17.77,7.7-17.77,17.2Z"/>
        <path class="cls-4" d="M727.11,372.87c-.04.05-.08.1-.11.15-1.7,2.29-2.13,5.11-1.88,7.76-.01.01,0,.01,0,.01.19,2.12.81,4.12,1.56,5.67,2.12,4.38,5.92,6.45,11.63,9.55,3.68,2.01,6.96,3.23,9.27,3.97.16.05.31.1.45.14,1.41-2.43,6.16-11.32,3.17-20.92-.76-2.44-2.18-6.97-6.54-9.39-3.46-1.92-7.09-1.58-9-1.24-.37.06-.68.13-.91.18-1.84.4-5.35,1.15-7.64,4.12Z"/>
      </g>
    </g>
    <path class="cls-2" d="M747.98,376.64c3.97,9.67-1.87,19.02-2.59,20.15.61.32,1.42.6,2.22.37,4.88-1.38,7.31-20.68-.81-26.37-1.57-1.1-3.22-1.47-4.34-1.62,1.7,1.43,4.04,3.86,5.52,7.47Z"/>
    <ellipse class="cls-2" cx="738.98" cy="380.42" rx="4.93" ry="4.59"/>
    <circle class="cls-2" cx="732.55" cy="386.89" r="3.13"/>
    <ellipse class="cls-2" cx="740.63" cy="387.12" rx="1.83" ry="1.74"/>
    <path class="cls-2" d="M515.35,494.05c7.02-3.54,10.88-11.14,9.55-18.5-1.15-6.35-6-11.57-12.44-13.4,1.14.6,7.82,4.25,9.81,12.12,1.79,7.09-.92,14.81-6.92,19.78Z"/>
    <path class="cls-2" d="M499.27,494.05c-7.02-3.54-10.88-11.14-9.55-18.5,1.15-6.35,6-11.57,12.44-13.4-1.14.6-7.82,4.25-9.81,12.12-1.79,7.09.92,14.81,6.92,19.78Z"/>
    <ellipse class="cls-2" cx="508.35" cy="475.27" rx="6.81" ry="6.67"/>
    <circle class="cls-2" cx="511.95" cy="483.76" r="1.88"/>
    <ellipse class="cls-2" cx="505.39" cy="485.64" rx="3.85" ry="3.7"/>
    <path class="cls-6" d="M486.53,275.08c.82.51,7.68,4.82,7.33,10.44-.3,4.79-5.64,7.66-12.44,11.33-6.31,3.4-17.71,9.55-30.47,6.38-3.35-.83-7.48-1.92-9.53-5.67-2.79-5.1.4-11.21.86-12.06,9.37-4.07,18.74-8.13,28.11-12.2,1.47-.45,9.15-2.61,16.15,1.78Z"/>
  </g>
</svg>