<?xml version="1.0" encoding="UTF-8"?>
<svg id="Layer_2" xmlns="http://www.w3.org/2000/svg" viewBox="0 0 612.59 1010.66">
  <defs>
    <style>
      .cls-1 {
        fill: #aeb2bf;
      }

      .cls-2, .cls-3 {
        fill: #939db4;
      }

      .cls-2, .cls-4 {
        stroke: #000;
        stroke-linecap: round;
        stroke-linejoin: round;
        stroke-width: 4px;
      }

      .cls-5 {
        fill: #fff;
      }

      .cls-4 {
        fill: none;
      }

      .cls-6 {
        fill: #603813;
      }

      .cls-7 {
        fill: #333;
      }

      .cls-8 {
        fill: #a79;
      }

      .cls-9 {
        fill: #8c6239;
      }

      .cls-10 {
        opacity: .5;
      }
    </style>
  </defs>
  <g id="Layer_2-2" data-name="Layer_2">
    <path class="cls-2" d="M429.15,185.84c47.4-3.9,69.02-3.7,91.11-20,8.57-6.32,22.84-17.19,22.67-33.33-.15-14.48-11.86-28.05-24.44-32.44-6.48-2.26-11.89-1.63-15.56-1.33,0,0-28.26,2.3-63.11-10.67-24.6-9.15-29.46-28.16-46.67-46.22C350.83-2.57,267.83-5.59,210.63,14.14c-49.23,16.98-77.12,50.03-95.41,71.7-63.88,75.7-68.76,164.99-70.75,201.38-2.07,37.88,1.67,69.52,5.57,91.5-4.21,12.41-10.9,30.61-20.74,52-8.66,18.82-13.81,27.16-17.48,35.11-8.69,18.82-15.1,48.42-3.63,95.11,2.59-.22,5.19-.44,7.78-.67,13.19-13.26,26.37-26.52,39.56-39.78v-23.56c2.59,6.01,5.18,12.03,7.77,18.04l8.45-7.82c4.59-.22,9.19-.44,13.78-.67,2.62,2.78,5.4,6.7,6.22,11.78.69,4.26-.28,7.61-.37,8-1.55,6.5,26,84.53,103.26,283.7l-89.41,44.48c-2.17,3.32-6.05,8.16-12.33,11.22-4.49,2.19-8.45,2.61-10.11,2.78-25.42,2.5-67.47-1.71-70.67,6.11-3.83,9.37,44.99,43.8,75.46,45.81,2.19.14,9.1.44,18.1,2.75,15.44,3.97,25.65,10.95,27.63,12.19,17.93,11.2,82.06,1.63,122.67-18.67,161.95-80.94,280.96-498.05,319.63-570.89,1.45-2.74,10.12-18.79,12.15-41.19,1.2-13.2,2.97-32.83-9.48-48.59-12.06-15.26-30.51-18.1-43.85-20.15-15.01-2.31-31.98-4.92-44.15,5.33-13.19,11.12-16.24,33.56-8.3,55.7-26.88-2.71-47.72-8.25-61.63-12.74-15.84-5.12-40.16-14.51-39.26-18.07.3-1.21,3.34-1.13,13.19-1.48,19.84-.7,29.9-1.1,36.74-3.26,4.01-1.26,18.71-5.9,22.37-17.04.42-1.29,2.16-6.57-.3-11.11-1.82-3.36-5.16-4.85-6.67-5.48-7.78-3.27-44.29-16.42-94.37-33.78,33.14-4.19,59.76-6.65,77.11-8.07Z"/>
    <path class="cls-1" d="M465.47,708.19H197.47c31.75-156.36,35.61-221.48,30.64-248.45-1.39-7.53-8.81-41.03,3.11-79.11,2.52-8.04,2.82-6.45,5.33-14.67,3.62-11.82,15.52-50.68-2.22-88.44-3.15-6.7-8.73-16.56-18.7-26.88,51.59-43.71,70.09-56.98,71.8-55.14,1.33,1.42-8.32,10.9-5.1,16.8,2.25,4.13,9.06,3.27,20.15,4.89,3.9.57,12.08,3.14,28.44,8.3,24.77,7.8,27.52,9.59,35.96,11.96,31.53,8.85,64.66,3.85,65.26-1.17.33-2.76-9.32-4.31-39.15-16.57-8.87-3.64-46.07-18.93-44.75-23.23.28-.93,2.29-1.16,4.01-1.36,6.12-.71,11.16,2.53,12.02,3.06,6.21,3.82,37.15,14.96,85.44,31.31,1.94,2.27,4.9,6.52,4.53,11.63-.6,8.38-9.77,13.6-14.14,16-26,14.32-52.97-.32-58.89,10.22-1.14,2.03-.12,7.91,1.93,19.67.67,3.84,1.58,11.02,3.78,17.22,7.27,20.48,22.04,41.19,32.89,51.07,1.36,1.24,5.11,4.54,8.07,10.11,0,0,2.82,5.29,3.78,11.67,1.47,9.72,15.33,145.48,33.81,331.12Z"/>
  </g>
  <g id="Layer_4">
    <g>
      <g>
        <path class="cls-9" d="M610.59,333.26c-1.38,11.25-2.77,22.51-4.15,33.77-8.9,3.75-17.81,7.51-26.71,11.26-103.88,32.09-207.76,64.19-311.65,96.29-.06-14.36-.12-28.72-.18-43.08.65-.35,1.3-.71,1.95-1.06,113.58-32.39,227.16-64.79,340.74-97.18Z"/>
        <path class="cls-6" d="M267.9,431.5c.06,14.36.12,28.72.18,43.08-5.59,2.93-11.17,5.85-16.76,8.78-53.79,28.18-107.6,56.38-161.4,84.56-1.26-12.44-2.52-24.89-3.77-37.33,60.58-33.03,121.16-66.06,181.75-99.09Z"/>
        <path class="cls-6" d="M251.32,483.36l3.12,525.3c-49.59-28.5-99.18-57.01-148.78-85.52-1.14-115.22-2.28-230.44-3.42-345.67-4.11-3.18-8.21-6.36-12.32-9.55,53.8-28.18,107.61-56.38,161.4-84.56Z"/>
        <path class="cls-9" d="M579.73,378.29c-1.47,172.79-2.93,345.58-4.4,518.37-106.96,37.34-213.93,74.67-320.89,112l-3.12-525.3c5.59-2.93,11.17-5.85,16.76-8.78,103.89-32.1,207.77-64.2,311.65-96.29Z"/>
      </g>
      <g>
        <path class="cls-4" d="M89.92,567.92c4.11,3.19,8.21,6.37,12.32,9.55,1.14,115.23,2.28,230.45,3.42,345.67,49.6,28.51,99.19,57.02,148.78,85.52,106.96-37.33,213.93-74.66,320.89-112,1.47-172.79,2.93-345.58,4.4-518.37,8.9-3.75,17.81-7.51,26.71-11.26,1.38-11.26,2.77-22.52,4.15-33.77-113.58,32.39-227.16,64.79-340.74,97.18-.65.35-1.3.71-1.95,1.06-60.59,33.03-121.17,66.06-181.75,99.09,1.25,12.44,2.51,24.89,3.77,37.33Z"/>
        <path class="cls-4" d="M254.44,1008.66l-3.12-525.3"/>
        <path class="cls-4" d="M89.92,567.92c53.8-28.18,107.61-56.38,161.4-84.56,5.59-2.93,11.17-5.85,16.76-8.78,103.89-32.1,207.77-64.2,311.65-96.29"/>
        <path class="cls-4" d="M267.9,431.5c.06,14.36.12,28.72.18,43.08"/>
      </g>
    </g>
  </g>
  <g id="Layer_3">
    <path class="cls-4" d="M481.77,296.33c2.05,4.02,6.64,11.69,15.52,17.45,3.16,2.05,19,12.33,33.48,5.33,10.74-5.18,14.4-16.79,15.11-19.26,4.31-14.98-3.74-28.79-.74-30.22.89-.42,2.78.23,7.26,5.63"/>
    <g>
      <g>
        <path class="cls-7" d="M371.13,238.29c.03-.32.54-5.24-1.74-9.12-.02-.04-.04-.07-.07-.11-.07-.12-.15-.25-.24-.37-.01-.03-.02-.05-.04-.07-3.68-5.85-10.78-15.15-22.86-21.88-5.62-3.12-20.73-11.54-39.12-6.96-12.1,3.02-19.94,10.26-23.48,14-2.82-4.8,2.76-13.35,7.88-19.79l-.02-.06c.84-.31,1.69-.62,2.55-.93,43.26-15.38,80.6-8.01,94.93-4.41-15.86,2.23-31.71,4.45-47.56,6.67,11.85,6.77,29.84,16.17,52.89,24.89,8.99,3.4,16.63,5.9,22.69,7.85l-.35,1.07c-4.53-1.2-11.63,2.92-13.89,11.66v.32c-2.49.02-5.07-.01-7.73-.11v-.23c-.02-5.71-3.85-10.55-8.87-11.71-5.96-1.37-12.54,2.7-14.06,9.45v.02c-.3-.05-.6-.11-.91-.17h0Z"/>
        <path class="cls-8" d="M346.39,231.27c.41-7.77-4.79-13.96-10.73-14.6-6.19-.66-10.61,4.99-10.85,5.31l-.02.05c-.91-.36-1.82-.71-2.74-1.04l.02-.04c1.82-3.18,1.61-5.47,1.36-6.61-1.41-6.44-12.14-11.25-19.22-7.34-5.22,2.89-6.24,9.31-6.4,10.37-4.07.21-11.79.57-14.23-3.59,3.54-3.74,11.38-10.98,23.48-14,18.39-4.58,33.5,3.84,39.12,6.96,12.08,6.73,19.18,16.03,22.86,21.88-.54-.8-1.21-1.54-2.05-2.17-5-3.76-14.19-2.29-19.49,5.25l-.02.05c-.38-.15-.75-.29-1.11-.43l.02-.05Z"/>
        <path class="cls-5" d="M323.43,214.34c.25,1.14.46,3.43-1.36,6.61l-.02.04c-6.9-2.51-14.08-4.08-23.5-3.65-.23.01-.47.02-.74.03.16-1.06,1.18-7.48,6.4-10.37,7.08-3.91,17.81.9,19.22,7.34Z"/>
        <path class="cls-5" d="M422.6,238.79l.1.58c-5.21.96-12.11,1.61-20,1.68v-.32c2.26-8.74,9.36-12.86,13.89-11.66.18.05.34.1.51.16,3.09,1.14,5.09,5.15,5.5,9.56Z"/>
        <path class="cls-5" d="M394.98,240.71v.23c-7.23-.28-15.02-1.04-22.94-2.47v-.02c1.52-6.75,8.1-10.82,14.06-9.45,5.02,1.16,8.85,6,8.88,11.71Z"/>
        <path class="cls-5" d="M369.39,229.17c2.28,3.88,1.77,8.8,1.74,9.12h0c-1.41-.25-2.83-.53-4.25-.84-7.56-1.63-13.87-3.62-19.4-5.7l.02-.05c5.3-7.54,14.49-9.01,19.49-5.25.84.63,1.51,1.37,2.05,2.17.02.02.03.04.04.07.09.12.17.25.24.37.03.04.05.07.07.11Z"/>
        <path class="cls-5" d="M335.66,216.67c5.94.64,11.14,6.83,10.73,14.6l-.02.05c-8.35-3.22-14.96-6.63-21.58-9.29l.02-.05c.24-.32,4.66-5.97,10.85-5.31Z"/>
        <path d="M310.62,126.97c4.34-1.91,6.01-7.1,6.52-6.82.44.25-.56,4.44-3.71,7.85-2.94,3.2-4.94,2.65-7.4,5.04-4.51,4.37-1.25,9.56-4.45,13.48-4.87,5.98-20.37,3.62-29.92-3.7-2.97-2.27-8.29-6.35-8.45-12.74-.1-4.41,2.25-9.66,6.52-11.85,5.37-2.76,12.39.04,25.63,5.33,7.46,2.98,11.22,5.18,15.26,3.41Z"/>
        <path class="cls-3" d="M209.92,247.92c24.68,7.14,39.61,69.43,25.78,114.22-3.15,10.22-9.23,24.14-10.67,46.23-1.05,16.15.84,29.62,2.67,38.66-5.5,9.66-11.9,19.81-19.33,30.23-16.03,22.42-32.84,40.35-48.11,54.41-2.22-1.05-12.49-6.18-16.66-18.02-3.89-11.05-.97-23.7,7.43-32.84,8.74-9.63,17.49-19.26,26.23-28.89l-15.56,15.56c-6.23-1.23-29.91-6.62-41.18-27.11-1.44-2.61-5.16-9.99-5.98-25.12-1.41-26.29,7.41-49.13,16.42-65.33l34.07-77.11c25.51-27.67,39.45-26.46,44.89-24.89Z"/>
      </g>
      <g>
        <path class="cls-4" d="M130.96,349.92c-9.01,16.2-17.83,39.04-16.42,65.33.82,15.13,4.54,22.51,5.98,25.12,11.27,20.49,34.95,25.88,41.18,27.11l15.56-15.56c-8.74,9.63-17.49,19.26-26.23,28.89-8.4,9.14-11.32,21.79-7.43,32.84,4.17,11.84,14.44,16.97,16.66,18.02,15.27-14.06,32.08-31.99,48.11-54.41,7.43-10.42,13.83-20.57,19.33-30.23-1.83-9.04-3.72-22.51-2.67-38.66,1.44-22.09,7.52-36.01,10.67-46.23,13.83-44.79-1.1-107.08-25.78-114.22-5.44-1.57-19.38-2.78-44.89,24.89"/>
        <path class="cls-4" d="M322.96,310.81c5.3.37,11.29.02,17.56-1.78,27.96-8.01,38.94-38.29,40.55-42.96-.17,4.6-.1,11.09,1,18.74.79,5.45,2.05,19.44,10.89,33.78,18.98,30.79,38.55,39.26,38.67,60.89.01,1.88-.13,3.4-.23,4.22"/>
        <path class="cls-4" d="M291.46,193.99c-5.12,6.44-10.7,14.99-7.88,19.79,2.44,4.16,10.16,3.8,14.23,3.59.27-.01.51-.02.74-.03,9.42-.43,16.6,1.14,23.5,3.65.92.33,1.83.68,2.74,1.04,6.62,2.66,13.23,6.07,21.58,9.29.36.14.73.28,1.11.43,5.53,2.08,11.84,4.07,19.4,5.7,1.42.31,2.84.59,4.25.85.31.06.61.12.91.17,7.92,1.43,15.71,2.19,22.93,2.47,2.66.1,5.24.13,7.73.11,7.89-.07,14.79-.72,20-1.68,6.29-1.15,10.12-2.74,10.29-4.29.22-1.97-5.53-3.71-16.05-7.08-6.06-1.95-13.7-4.45-22.69-7.85-23.05-8.72-41.04-18.12-52.89-24.89,15.85-2.22,31.7-4.44,47.56-6.67-14.33-3.6-51.67-10.97-94.93,4.41-.86.31-1.71.62-2.55.93-37.01,13.87-59.22,37.61-68.56,48.85"/>
        <path class="cls-4" d="M297.81,217.37c.16-1.06,1.18-7.48,6.4-10.37,7.08-3.91,17.81.9,19.22,7.34.25,1.14.46,3.43-1.36,6.61"/>
        <path class="cls-4" d="M324.81,221.98c.24-.32,4.66-5.97,10.85-5.31,5.94.64,11.14,6.83,10.73,14.6"/>
        <path class="cls-4" d="M369.39,229.17c2.28,3.88,1.77,8.8,1.74,9.12"/>
        <path class="cls-4" d="M369.08,228.69c.09.12.17.25.24.37"/>
        <path class="cls-4" d="M347.5,231.7c5.3-7.54,14.49-9.01,19.49-5.25.84.63,1.51,1.37,2.05,2.17"/>
        <path class="cls-4" d="M372.04,238.45c1.52-6.75,8.1-10.82,14.06-9.45,5.02,1.16,8.85,6,8.88,11.71"/>
        <path class="cls-4" d="M402.7,240.73c2.26-8.74,9.36-12.86,13.89-11.66.18.05.34.1.51.16,3.09,1.14,5.09,5.15,5.5,9.56"/>
        <path class="cls-4" d="M269.73,118.23c-4.27,2.19-6.62,7.44-6.52,11.85.16,6.39,5.48,10.47,8.45,12.74,9.55,7.32,25.05,9.68,29.92,3.7,3.2-3.92-.06-9.11,4.45-13.48,2.46-2.39,4.46-1.84,7.4-5.04,3.15-3.41,4.15-7.6,3.71-7.85-.51-.28-2.18,4.91-6.52,6.82-4.04,1.77-7.8-.43-15.26-3.41-13.24-5.29-20.26-8.09-25.63-5.33Z"/>
        <path class="cls-4" d="M283.58,213.78c3.54-3.74,11.38-10.98,23.48-14,18.39-4.58,33.5,3.84,39.12,6.96,12.08,6.73,19.18,16.03,22.86,21.88.02.02.03.04.04.07.09.12.17.25.24.37.03.04.05.07.07.11"/>
      </g>
    </g>
    <circle class="cls-5" cx="278.24" cy="131.41" r="6.72"/>
    <ellipse class="cls-5" cx="286.4" cy="137.3" rx="2.39" ry="2.78"/>
    <circle class="cls-5" cx="290.23" cy="129.11" r="4.42"/>
  </g>
  <g id="Layer_5">
    <path class="cls-10" d="M190.7,70.67c-66.16,53.51-123.96,150.21-128.01,243.02-1.22,27.98,2.65,50.88-8.29,87.94-11.04,37.41-24.41,46.01-34.62,87.47-10.17,41.31-6.45,71.59-9.97,71.72-3.15.11-9.81-23.88-7.75-50.79,1.85-24.16,9.65-36.5,27.92-80.8,8.55-20.73,15.23-38.36,19.98-51.31-6.69-34.78-12.21-89.08,1.78-152.44,6.26-28.38,19.75-86.37,65.48-141.19,10.96-13.13,30.32-33.94,59.26-52.74,9.61-6.25,46.15-29.07,94.81-31.41,11.32-.54,14.69.43,15.53,2.42,3.96,9.36-52.01,32.42-96.13,68.1Z"/>
    <path class="cls-10" d="M161.71,467.47c-12.71.34-31.34-1.45-44.19-13.99-28.55-27.87-6.53-87.35,1.78-109.78,7.31-19.75,23.86-55.16,62.22-88.89-63.19,83.08-83.25,162.31-53.78,195.56,5.85,6.6,15.83,13.84,33.97,17.1Z"/>
  </g>
</svg>