<?xml version="1.0" encoding="UTF-8"?>
<svg id="Layer_2" xmlns="http://www.w3.org/2000/svg" viewBox="0 0 862.71 1521.45">
  <defs>
    <style>
      .cls-1 {
        fill: #fff;
      }

      .cls-2 {
        fill: #aab;
      }

      .cls-3 {
        fill: none;
        stroke: #000;
        stroke-linecap: round;
        stroke-linejoin: round;
        stroke-width: 3px;
      }

      .cls-4 {
        fill: #ccc;
      }

      .cls-5 {
        opacity: .5;
      }
    </style>
  </defs>
  <g id="Layer_2-2" data-name="Layer_2">
    <g>
      <g>
        <path class="cls-4" d="M860.34,696.72c1.09,10.26,2.56,24.15-5.37,30.44-11.48,9.1-29.17-8.39-70.38-15.9-12.19-2.22-29.79-2.47-64.99-2.98-20.51-.29-37.54-.06-49.43.23-1.2-5.94-2.44-12.23-3.75-18.93-2.24-11.47-6.85-35.42-14.67-67.56-6.71-27.58-12.26-46.68-14.22-53.78-5.44-19.62-11.03-46.64-14.19-83.66,54.82,58.29,101.24,86.27,134.19,101.03,7.04,3.16,26.36,11.49,48,28.45,14.74,11.55,50.31,40.22,54.81,82.66Z"/>
        <path class="cls-2" d="M733.03,218.42c1.71-.93,8.83-4.57,16.37-1.83,1.94.71,3.51,1.7,4.74,2.67-3.67,4.34-7.76,6.48-8.15,6.67-2.8-1.19-6.88-3.16-11.33-6.34-.56-.4-1.1-.79-1.63-1.17Z"/>
        <path d="M749.4,216.59c-7.54-2.74-14.66.9-16.37,1.83-5.27-3.78-8.95-6.76-10.67-11.89-.01-.02-.01-.03-.01-.04l-.09-.3c-.07-.21-.13-.43-.18-.65-.02-.09-.05-.19-.07-.3-.1-.42-.2-.95-.29-1.55-.01-.03-.01-.06-.01-.08-.12-.92-.27-2.54-.18-4.49.17-2.65.9-5.71,2.79-8.64.75-1.15,3.24-5,7.84-6.57.02-.01.04-.02.07-.02.67-.18,1.36-.31,2.06-.41h.05c1.48-.12,3.86-.08,8.65.11,1.24.05,2.4.11,3.47.15.07,0,.14,0,.21.02,1.34.1,2.66.18,3.95.2.09,0,.17.01.26.01.86.72,10.16,8.74,9.07,21.53-.5,5.93-3.04,10.48-5.81,13.76-1.23-.97-2.8-1.96-4.74-2.67Z"/>
        <path class="cls-2" d="M677.97,1397.02c2.3,5.86-5.08,13.8-7.26,16.15-17.09,18.39-37.56,12.27-70.31,20.92-46.29,12.22-47.81,35.65-83.54,35.6-5.12,0-19.71-.51-40.89.59-16.93.88-23.61,2.03-30.67,5.33-2.54,1.19-4.59,2.4-6.35,3.67,2.2-3.6,5.05-7.62,8.76-11.69,6.64-7.27,13.66-12.12,19.36-15.3.91-.48,1.78-.95,2.6-1.39.05-.03.09-.05.13-.07,1.93-1.06,3.56-1.99,4.62-2.59,55.04-31.39,87.37-77.77,87.37-77.78,3.36-4.82,6.64-9.72,9.84-14.67,24.49,23.29,46.19,30.76,61.6,33.23,20.67,3.32,41.39-.52,44.74,8Z"/>
        <path class="cls-4" d="M633.54,384.04c-2.8-.64-6.23-1.15-10.42-1.46,2.73.35,6.27.83,10.42,1.46ZM572.45,303.95c3.73,1.4,7.32,2.75,10.78,4.06.01.01.02.01.03.01,66.09,25.1,83.27,34.84,120.75,45.41,23.23,6.54,42.8,10.18,55.74,12.22h.04c.48.08.94.15,1.4.22-2.58,11.24-7.47,17.32-11.26,20.74-18.41,16.66-54.02,9.51-97.15.86-1.17-.24-6.25-1.27-13.22-2.45-2.1-.36-4.09-.68-5.96-.97,10.05,2.28,12.07,6.13,12.63,7.75,1.88,5.42-8.29,15.97-28.71,36.84-7.01,7.16-12.09,11.98-20.07,16.05-8.85,4.35-17.31,5.98-18.34,6.2,1.02-.14,9.43-1.65,18.34-6.2,11.37-5.58,18.86-13.41,23.3-18.93.15,21.97,1.1,41.49,2.58,58.81h0c3.16,37.03,8.75,64.05,14.19,83.67,1.96,7.1,7.51,26.2,14.22,53.78,7.82,32.14,12.43,56.09,14.67,67.56,1.31,6.7,2.55,12.99,3.75,18.93,17.48,86.83,23.51,96.07,28.25,134.84,6.08,49.82,2.53,86.97-2.23,133.78,0,0-22.42,220.64-124.56,378.66-3.2,4.95-6.48,9.85-9.84,14.67,0,.01-32.33,46.39-87.37,77.78-1.06.6-2.69,1.53-4.62,2.59-.04.02-.08.04-.13.07-.83.42-1.7.88-2.6,1.39-6.83,3.58-15.5,7.51-17.28,5.29-.6-.75-.28-2.04.59-3.72.03-.06.07-.12.1-.18,1.48-2.78,4.37-6.59,7.05-10.8,5.62-8.85,13.59-21.95,21.77-40.12,0,0,5.78-12.82,11.19-28.44,15.43-44.56,17.09-93.44,17.48-107.26,5.45-194.02,2.22-229.83-4.15-268.15-5.03-30.29-7.93-47.78-15.7-72.3-2.9-9.15-28.1-88.69-68.22-144.52-4.38-6.08-16.57-22.51-23.41-47.25-2.08-7.52-3.28-14.42-3.98-20.31-.15-3.91-.46-7.67-.87-11.21.11,3.07.36,6.87.87,11.21.7,17.6-1.93,38.19-14.58,55.31-9.23,12.5-18.89,16.5-37.33,29.33-19.59,13.63-33.21,26.87-60.44,53.33-11.62,11.29-21.28,21.69-29.39,31.06-31.04,35.85-39.27,56.52-47.06,53.83-15.59-5.39-13.42-98.99,27.11-185.78,19.92-42.64,56.16-98.76,96-160.44,10.37-16.06,22.73-34.77,32.45-63.11,9.73-28.41,6.72-37.03,18.22-81.89,3.41-13.31,10.1-37.62,21.63-66.96,3.12-7.95,17.02-42.64,41.48-70.82,3.87-4.46,9.05-9.95,17.19-14.37,14.77-8.02,29.68-7.26,39.09-6.44,41.54,3.62,75.57,16.37,75.57,16.37Z"/>
        <path d="M528.87,177.4c1.16,2.01,4.15,7.81,2.19,13.68-3.71,11.14-21.51,11.2-22.67,11.19-.25,0-.51-.01-.77-.02-.15,0-.31,0-.47-.02-9.1-.44-22.05-4.85-23.64-13.93-1.51-8.63,7.46-20.31,22.97-23.28h.01c1.09.34,2.18.73,3.28,1.17,2.5,1,4.56,2.07,6.36,3.15l.03.03c2.52,2.03,3.72,4.03,7.13,5.93,2.19,1.23,4.23,1.81,5.58,2.1Z"/>
        <path class="cls-2" d="M192.41,765.86c-5.78-13.3-12.6-30.37-19.23-50.65-1.44-4.41-2.87-8.97-4.28-13.67-4.58-15.29-19.05-65.93-23.56-136-1.63-25.35-4.41-73.4,3.73-132.59,2.27-16.54,5.4-33.95,9.64-51.97,9.91-42.09,44.06-178.67,166.22-284.44C365.31,61.58,425.53,9.44,513.82,2.32c66.52-5.37,128.92,16.42,157.78,38.22,13.74,10.38,25.78,23.11,25.78,23.11,11.24,11.89,18.9,24.07,34.22,48.44,9.39,14.94,15.01,25.1,14.67,38.67-.09,3.48-.55,6.34-.93,8.24,7.78-2.16,15.26.24,18.4,5.38,2.87,4.69,2.12,11.66-1.47,15.71-2.91,3.28-7.06,3.96-11.65,3.87-1.12-.07-2.45-.13-3.95-.2-.07-.01-.14-.02-.21-.02-4.07-.31-8.28-.79-12.12-.26h-.05c-.91.07-1.47.21-2.06.41-.03,0-.05.01-.07.02-2.24.57-4.29,1.61-6.06,3.35-3.47,3.43-4.43,8.22-4.57,11.86-.12,1.72,0,3.27.18,4.49,0,.02,0,.05.01.08.05.39.09.63.1.7.05.29.12.57.19.85.02.1.04.2.07.3.05.22.11.44.18.65.03.11.05.18.06.22.01.03.02.05.03.08,0,0,0,.02.01.04,3.23,10.22,15.18,16.8,34.57,24.97,44.92,18.95,50.98,13.28,67.97,24.71,1.77,1.19,40.99,28.35,35,62.77-3.79,21.75-24.09,37.64-40.45,43.11-6.88,2.3-13.4,2.88-23.7,3.78-14.94,1.32-27.39.64-35.96-.22h-.04c-12.94-2.04-32.51-5.68-55.74-12.22-37.48-10.57-54.66-20.31-120.75-45.41,0,0-.02,0-.03-.01-3.46-1.31-7.05-2.66-10.78-4.06,0,0-34.03-12.75-75.57-16.37-9.41-.82-24.32-1.58-39.09,6.44-8.14,4.42-13.32,9.91-17.19,14.37-24.46,28.18-38.36,62.87-41.48,70.82-11.53,29.34-18.22,53.65-21.63,66.96-11.5,44.86-8.49,53.48-18.22,81.89-9.72,28.34-22.08,47.05-32.45,63.11-39.84,61.68-76.08,117.8-96,160.44-40.53,86.79-42.7,180.39-27.11,185.78-1.48-.2-3.68-.68-5.92-2-6.66-3.91-8.51-12.09-9.19-15.11-17.01-75.42.77-143.25.77-143.25.99-3.78,2-7.5,3.04-11.17ZM508.39,202.27c1.16.01,18.96-.05,22.67-11.19,1.96-5.87-1.03-11.67-2.19-13.68l.04-.1c-4.82-1.9-7.82-4.96-12.75-7.93l-.03-.03c-1.89-1.5-4.9-3.34-9.64-4.32h-.01c-15.51,2.97-24.48,14.65-22.97,23.28,1.59,9.08,14.54,13.49,23.64,13.93.16.01.32.02.47.02.26.01.52.02.77.02Z"/>
        <path class="cls-2" d="M503.82,998.91c6.37,38.32,9.6,74.13,4.15,268.15-.39,13.82-2.05,62.7-17.48,107.26-5.41,15.62-11.19,28.44-11.19,28.44-8.18,18.17-16.15,31.27-21.77,40.12-2.68,4.21-5.57,8.02-7.05,10.8-.03.06-.07.12-.1.18-1.28,2.18-2.54,4.47-3.78,6.85-3.54,6.77-6.38,13.27-8.67,19.33h0c-5.62,4.37-8.43,9.38-16.33,16.02-16.4,13.78-34.45,17.5-51.55,21.03-9.77,2.02-21.03,3.37-46.52,2.67-37.18-1.02-84.92-2.34-86.52-13.04-1.2-7.97,24.49-10.64,58.07-36.14,24.43-18.56,18.93-24.69,53.63-55.12,25.98-22.77,41.88-30.57,53.34-34.96,14.09-5.4,26.58-7.6,35.25-8.59-1.39-.09-2.79-.18-4.18-.27-.11-6.93-.24-17.44-.26-30.25-.05-28.51.46-34.84.3-49.18-.27-23.59-2.06-40.94-4.15-61.34-2.77-26.9-4.15-40.35-8.3-59.26-5.47-24.93-12.51-44.67-17.48-57.18-5.21-13.1-13.78-32.45-30.22-59.56-24.57-40.5-39.74-53.85-70.82-95.41-12.77-17.08-31.08-42.73-51.42-75.9,8.11-9.37,17.77-19.77,29.39-31.06,27.23-26.46,40.85-39.7,60.44-53.33,18.44-12.83,28.1-16.83,37.33-29.33,12.65-17.12,15.28-37.71,14.58-55.31.7,5.89,1.9,12.79,3.98,20.31,6.84,24.74,19.03,41.17,23.41,47.25,40.12,55.83,65.32,135.37,68.22,144.52,7.77,24.52,10.67,42.01,15.7,72.3Z"/>
        <path class="cls-2" d="M173.18,715.21c-23.52,3.69-47.03,7.38-70.54,11.07-4.91-24.24-8.46-36.24-10.67-36-2.37.26-3.18,14.63-2.44,43.11-8.84,7.39-20.74,16.89-35.34,27.26-26.45,18.79-39.68,28.19-45.77,25.33-19.01-8.9,6.84-100.85,9.77-111.11,7.3-25.53,27.1-87.9,78.03-168.13,20.57-32.41,39.73-57.5,52.85-73.79-8.14,59.19-5.36,107.24-3.73,132.59,4.51,70.07,18.98,120.71,23.56,136,1.41,4.7,2.84,9.26,4.28,13.67Z"/>
      </g>
      <g>
        <path class="cls-3" d="M469.67,1450.9c-.82.44-1.69.91-2.6,1.39-6.83,3.58-15.5,7.51-17.28,5.29-.6-.75-.28-2.04.59-3.72"/>
        <path class="cls-3" d="M623.34,484.58c3.16,37.02,8.75,64.04,14.19,83.66,1.96,7.1,7.51,26.2,14.22,53.78,7.82,32.14,12.43,56.09,14.67,67.56,1.31,6.7,2.55,12.99,3.75,18.93,17.48,86.83,23.51,96.07,28.25,134.84,6.08,49.82,2.53,86.97-2.23,133.78,0,0-22.42,220.64-124.56,378.66-3.2,4.95-6.48,9.85-9.84,14.67,0,.01-32.33,46.39-87.37,77.78-1.06.6-2.69,1.53-4.62,2.59"/>
        <path class="cls-3" d="M579.01,450.91s.03,0,.1-.02c1.03-.22,9.49-1.85,18.34-6.2,11.37-5.58,18.86-13.41,23.3-18.93.15,21.97,1.1,41.49,2.58,58.81"/>
        <path class="cls-3" d="M633.6,384.05c10.05,2.28,12.07,6.13,12.63,7.75,1.88,5.42-8.29,15.97-28.71,36.84-7.01,7.16-12.09,11.98-20.07,16.05-8.91,4.55-17.32,6.06-18.34,6.2"/>
        <path class="cls-3" d="M633.54,384.04c-4.15-.63-7.69-1.11-10.42-1.46,4.19.31,7.62.82,10.42,1.46Z"/>
        <path class="cls-3" d="M633.54,384.04s.03.01.05.01h.01"/>
        <path class="cls-3" d="M759.79,365.65c.48.08.94.15,1.4.22-2.58,11.24-7.47,17.32-11.26,20.74-18.41,16.66-54.02,9.51-97.15.86-1.17-.24-6.25-1.27-13.22-2.45-2.1-.36-4.09-.68-5.96-.97"/>
        <path class="cls-3" d="M583.26,308.02c66.09,25.1,83.27,34.84,120.75,45.41,23.23,6.54,42.8,10.18,55.74,12.22"/>
        <path class="cls-3" d="M392.51,714.53c.7,17.6-1.93,38.19-14.58,55.31-9.23,12.5-18.89,16.5-37.33,29.33-19.59,13.63-33.21,26.87-60.44,53.33-11.62,11.29-21.28,21.69-29.39,31.06-31.04,35.85-39.27,56.52-47.06,53.83-15.59-5.39-13.42-98.99,27.11-185.78,19.92-42.64,56.16-98.76,96-160.44,10.37-16.06,22.73-34.77,32.45-63.11,9.73-28.41,6.72-37.03,18.22-81.89,3.41-13.31,10.1-37.62,21.63-66.96,3.12-7.95,17.02-42.64,41.48-70.82,3.87-4.46,9.05-9.95,17.19-14.37,14.77-8.02,29.68-7.26,39.09-6.44,41.54,3.62,75.57,16.37,75.57,16.37,3.73,1.4,7.32,2.75,10.78,4.06"/>
        <path class="cls-3" d="M392.51,714.53c-.51-4.34-.76-8.14-.87-11.21.41,3.54.72,7.3.87,11.21Z"/>
        <path class="cls-3" d="M450.48,1453.68c1.48-2.78,4.37-6.59,7.05-10.8,5.62-8.85,13.59-21.95,21.77-40.12,0,0,5.78-12.82,11.19-28.44,15.43-44.56,17.09-93.44,17.48-107.26,5.45-194.02,2.22-229.83-4.15-268.15-5.03-30.29-7.93-47.78-15.7-72.3-2.9-9.15-28.1-88.69-68.22-144.52-4.38-6.08-16.57-22.51-23.41-47.25-2.08-7.52-3.28-14.42-3.98-20.31"/>
        <path class="cls-3" d="M472.82,316.5c4.37-3.92,11.46-9.33,21.34-12.89,11-3.96,20.46-3.84,31.85-3.11,14.14.91,33.62,2.89,57.22,7.51.01.01.02.01.03.01"/>
        <path class="cls-3" d="M203.71,937.39c-1.48-.2-3.68-.68-5.92-2-6.66-3.91-8.51-12.09-9.19-15.11-17.01-75.42.77-143.25.77-143.25.99-3.78,2-7.5,3.04-11.17,12.8-45.31,28.79-82.18,36.93-100.77,11.5-26.25,24.02-51.12,34.45-90.66,5.1-19.37,7.98-35.69,9.63-46.77"/>
        <path class="cls-3" d="M722.36,206.53c3.23,10.22,15.18,16.8,34.57,24.97,44.92,18.95,50.98,13.28,67.97,24.71,1.77,1.19,40.99,28.35,35,62.77-3.79,21.75-24.09,37.64-40.45,43.11-6.88,2.3-13.4,2.88-23.7,3.78-14.94,1.32-27.39.64-35.96-.22h-.04"/>
        <path class="cls-3" d="M722.26,206.19l.09.3"/>
        <path class="cls-3" d="M721.72,203.69c.05.39.09.63.1.7.05.29.12.57.19.85.02.1.04.2.07.3"/>
        <path class="cls-3" d="M732.16,183.91c-2.24.57-4.29,1.61-6.06,3.35-3.47,3.43-4.43,8.22-4.57,11.86-.09,1.95.06,3.57.18,4.49"/>
        <path class="cls-3" d="M734.29,183.48c-.7.1-1.39.23-2.06.41"/>
        <path class="cls-3" d="M746.46,183.74c-4.07-.31-8.28-.79-12.12-.26"/>
        <path class="cls-3" d="M192.41,765.86c-5.78-13.3-12.6-30.37-19.23-50.65-1.44-4.41-2.87-8.97-4.28-13.67-4.58-15.29-19.05-65.93-23.56-136-1.63-25.35-4.41-73.4,3.73-132.59,2.27-16.54,5.4-33.95,9.64-51.97,9.91-42.09,44.06-178.67,166.22-284.44C365.31,61.58,425.53,9.44,513.82,2.32c66.52-5.37,128.92,16.42,157.78,38.22,13.74,10.38,25.78,23.11,25.78,23.11,11.24,11.89,18.9,24.07,34.22,48.44,9.39,14.94,15.01,25.1,14.67,38.67-.09,3.48-.55,6.34-.93,8.24,7.78-2.16,15.26.24,18.4,5.38,2.87,4.69,2.12,11.66-1.47,15.71-2.91,3.28-7.06,3.96-11.65,3.87-1.29-.02-2.61-.1-3.95-.2"/>
        <path class="cls-3" d="M623.33,484.57h0c54.82,58.3,101.24,86.28,134.19,101.04,7.04,3.16,26.36,11.49,48,28.45,14.74,11.55,50.31,40.22,54.81,82.66,1.09,10.26,2.56,24.15-5.37,30.44-11.48,9.1-29.17-8.39-70.38-15.9-12.19-2.22-29.79-2.47-64.99-2.98-20.51-.29-37.54-.06-49.43.23"/>
        <path class="cls-3" d="M173.18,715.21c-23.52,3.69-47.03,7.38-70.54,11.07-4.91-24.24-8.46-36.24-10.67-36-2.37.26-3.18,14.63-2.44,43.11-8.84,7.39-20.74,16.89-35.34,27.26-26.45,18.79-39.68,28.19-45.77,25.33-19.01-8.9,6.84-100.85,9.77-111.11,7.3-25.53,27.1-87.9,78.03-168.13,20.57-32.41,39.73-57.5,52.85-73.79"/>
        <path class="cls-3" d="M438.95,1479.28c1.76-1.27,3.81-2.48,6.35-3.67,7.06-3.3,13.74-4.45,30.67-5.33,21.18-1.1,35.77-.6,40.89-.59,35.73.05,37.25-23.38,83.54-35.6,32.75-8.65,53.22-2.53,70.31-20.92,2.18-2.35,9.56-10.29,7.26-16.15-3.35-8.52-24.07-4.68-44.74-8-15.41-2.47-37.11-9.94-61.6-33.23"/>
        <path class="cls-3" d="M437.93,1480.04c.33-.25.66-.5,1.01-.75"/>
        <path class="cls-3" d="M250.77,883.55h0c20.34,33.18,38.65,58.83,51.42,75.91,31.08,41.56,46.25,54.91,70.82,95.41,16.44,27.11,25.01,46.46,30.22,59.56,4.97,12.51,12.01,32.25,17.48,57.18,4.15,18.91,5.53,32.36,8.3,59.26,2.09,20.4,3.88,37.75,4.15,61.34.16,14.34-.35,20.67-.3,49.18.02,12.81.15,23.32.26,30.25,1.39.09,2.79.18,4.18.27-8.67.99-21.16,3.19-35.25,8.59-11.46,4.39-27.36,12.19-53.34,34.96-34.7,30.43-29.2,36.56-53.63,55.12-33.58,25.5-59.27,28.17-58.07,36.14,1.6,10.7,49.34,12.02,86.52,13.04,25.49.7,36.75-.65,46.52-2.67,17.1-3.53,35.15-7.25,51.55-21.03,7.9-6.64,10.71-11.65,16.33-16.01"/>
        <path class="cls-3" d="M438.94,1479.29s0-.01.01-.01c2.2-3.6,5.05-7.62,8.76-11.69,6.64-7.27,13.66-12.12,19.36-15.3.9-.51,1.77-.97,2.6-1.39.05-.03.09-.05.13-.07"/>
        <path class="cls-3" d="M437.93,1480.05h0c2.29-6.07,5.13-12.57,8.67-19.34,1.24-2.38,2.5-4.67,3.78-6.85.03-.06.07-.12.1-.18.44-.74.87-1.48,1.31-2.2"/>
        <path class="cls-3" d="M516.16,169.37c4.93,2.97,7.93,6.03,12.75,7.93.69.27,1.42.52,2.19.74,6.67,1.89,16.96,1.74,32.3-8.3"/>
        <path class="cls-3" d="M506.49,165.02c1.09.34,2.18.73,3.28,1.17,2.5,1,4.56,2.07,6.36,3.15"/>
        <path class="cls-3" d="M483.4,163.22c5.91-.75,14.21-1,23.08,1.8"/>
        <path class="cls-3" d="M507.62,202.25c.61.02,1.23.05,1.85.09,19.49,1.29,32.97,10.49,38.22,14.51"/>
        <path class="cls-3" d="M477.77,207.67c5.67-2.37,16.1-5.88,29.38-5.44"/>
        <path class="cls-3" d="M482.8,126.19c7.1-1.35,21.3-3.04,37.93,2.07,14.12,4.34,23.82,11.69,29.04,16.3"/>
        <path class="cls-3" d="M632.43,178.63c5.06-2.66,17.61-8.38,34.08-6.81,21.63,2.06,35.02,15.28,38.52,18.96"/>
        <path class="cls-3" d="M545.62,28.41c22.34,10.99,34.69,14.84,37.04,11.56,1.54-2.16-1.23-7.4-8.3-15.71"/>
        <path class="cls-3" d="M507.15,202.23c-9.1-.44-22.05-4.85-23.64-13.93-1.51-8.63,7.46-20.31,22.97-23.28h.01c4.74.98,7.75,2.82,9.64,4.32l.03.03c2.52,2.03,3.72,4.03,7.13,5.93,2.19,1.23,4.23,1.81,5.58,2.1,1.16,2.01,4.15,7.81,2.19,13.68-3.71,11.14-21.51,11.2-22.67,11.19-.25,0-.51-.01-.77-.02-.15,0-.31,0-.47-.02Z"/>
        <path class="cls-3" d="M732.16,183.91s.04-.02.07-.02c.59-.2,1.15-.34,2.06-.41h.05c1.48-.12,3.86-.08,8.65.11,1.24.05,2.4.11,3.47.15.07,0,.14,0,.21.02,1.5.07,2.83.13,3.95.2.09,0,.17.01.26.01.86.72,10.16,8.74,9.07,21.53-.5,5.93-3.04,10.48-5.81,13.76-3.67,4.34-7.76,6.48-8.15,6.67-2.8-1.19-6.88-3.16-11.33-6.34-.56-.4-1.1-.79-1.63-1.17-5.27-3.78-8.95-6.76-10.67-11.89-.01-.02-.01-.03-.01-.04-.01-.03-.02-.05-.03-.08-.01-.04-.03-.11-.06-.22-.07-.21-.13-.43-.18-.65-.02-.09-.05-.19-.07-.3-.1-.42-.2-.95-.29-1.55-.01-.03-.01-.06-.01-.08-.18-1.22-.3-2.77-.18-4.49.17-2.65.9-5.71,2.79-8.64.75-1.15,3.24-5,7.84-6.57Z"/>
        <path class="cls-3" d="M754.14,219.26c-1.23-.97-2.8-1.96-4.74-2.67-7.54-2.74-14.66.9-16.37,1.83h-.01"/>
      </g>
    </g>
    <path class="cls-1" d="M491.77,195.53c-.84.56-7.28-4.05-7.7-10.44-.5-7.4,7.37-12.58,8.74-13.48,7.81-5.14,16.84-3.67,16.89-3.26.05.39-7.97-.34-14.37,5.04-1.28,1.07-5.86,5.21-6.37,11.26-.52,6.19,3.55,10.39,2.81,10.89Z"/>
    <path class="cls-1" d="M504.22,199.6c.05.62,18.87,4.72,24.3-5.11,4.24-7.69-2.65-18.6-3.59-18.37-.87.21,3.62,9.77-.86,16.52-5.38,8.12-19.9,6.41-19.85,6.96Z"/>
    <ellipse class="cls-1" cx="502.03" cy="190.86" rx="3.89" ry="3.43"/>
    <ellipse class="cls-1" cx="512.73" cy="180.63" rx="8.87" ry="8.51"/>
    <ellipse class="cls-1" cx="512.73" cy="193.54" rx="2.89" ry="4.19" transform="translate(296.4 697.09) rotate(-87.43)"/>
    <path class="cls-1" d="M736.3,185.32c1.31-.38,8.81-2.41,15.41,1.93,4.14,2.72,5.74,6.69,6.43,8.4,0,0,2.55,6.34.61,13.16-.35,1.23-1.54,3.76-3.48,6.67,0,0,0,0,0,0-1.43,1.6-2.94,2.59-3.99,3.17,8.01-7.34,9.21-18.92,3.77-26.31-4.04-5.5-11.36-8.16-18.74-7Z"/>
    <ellipse class="cls-1" cx="732.69" cy="196.75" rx="8.56" ry="8.46"/>
    <ellipse class="cls-1" cx="741.25" cy="206.93" rx="3.2" ry="3.48"/>
    <ellipse class="cls-1" cx="732.69" cy="210.41" rx="3.61" ry="3.91"/>
  </g>
  <g id="Layer_3">
    <path class="cls-5" d="M245.49,1512.98c3.79-2.09,9.99-5.39,17.88-8.97,15.34-6.96,27.16-10.51,30.24-11.51,28.97-9.39,39.81-38.2,90.21-72.94,16.59-11.43,37.66-23.64,45.56-28.22,12.35-7.16,22.96-12.92,30.89-17.11-2.15-1.78-4.3-3.56-6.44-5.33.99-15.81,2.05-39.76,1.56-68.89-2.36-140.23-37.99-244.13-56.89-297.78-10.79-30.64-20.01-51.87-31.02-72.81-20.68-39.31-42.96-68.57-58.8-87.34,12.31-5.21,59.07-26.7,77.78-76.89,5.68-15.23,7.41-29.45,7.59-40.9-3.83,33.89-14.88,48.32-24.78,55.12-4.86,3.34-14.84,8.8-30.52,20.15-4.44,3.21-7.5,5.7-13.63,10.67,0,0-11.99,9.72-23.7,20.44-23.05,21.1-46.14,47.7-50.06,52.23,6.36,11.18,15.7,26.83,28.06,45.03,2.98,4.38,6.34,9.21,10.33,14.78,23.04,32.07,54.64,70.78,64.67,83.74,35.8,46.27,51.45,93.51,57.63,112.67,15.4,47.79,17.8,89.69,18.89,110,1.14,21.19,1.57,57.37,1.94,88.44.17,13.93.24,25.41.28,33.11-17.27,2.74-30.26,7.85-38.89,12-18.26,8.78-30.9,19.95-51.91,38.52-8.74,7.73-13.85,12.91-16.53,15.7-13.22,13.75-13.28,16.96-21.56,25.33-11.54,11.68-24,18.18-41.11,27.11-15.44,8.06-26.19,11.76-25.78,16.89.25,3.13,4.56,5.36,8.12,6.75Z"/>
    <path class="cls-5" d="M247.57,623.27c-7.62-23.72-16.09-58.4-17.2-101.3-.35-13.47.13-23.77.44-30.22,0,0,2.67-55.01,17.78-107.56,10.58-36.8,60.02-173.96,176.89-252.89,22.45-15.16,63.45-39.02,64-73.33.02-1.16.1-24.17-14.12-33.76-34.8-23.49-131.72,49.21-190.32,113.76-14.25,15.69-76.81,86.62-115.56,204.44-26.77,81.4-4.67,88.99-33.33,148.44-23.99,49.77-53.63,77.25-89.78,155.11-8.81,18.97-13.28,31.61-22.22,56.89-16.07,45.42-26.54,75.65-17.56,81.89,6.61,4.6,21.36-5.51,45.44-22,15.87-10.87,28.37-21.52,37.48-30-.33-27.96.68-42.05,3.03-42.27,2.2-.21,5.56,11.72,10.1,35.81,23.49-3.57,46.98-7.15,70.46-10.72,6.44,16.77,12.87,33.54,19.31,50.3,3.62-12.28,7.59-24.81,11.95-37.56,13.13-38.42,27.9-73.44,43.2-105.03Z"/>
  </g>
</svg>